<svg width="16" height="14" viewBox="0 0 16 14" fill="none" xmlns="http://www.w3.org/2000/svg">
<path d="M0.881959 5.28562L0.857468 5.29097H11.3565L8.05599 1.98319C7.89437 1.8217 7.80571 1.60293 7.80571 1.37332C7.80571 1.14371 7.89437 0.926475 8.05599 0.7646L8.56955 0.250785C8.73104 0.0892927 8.94623 0 9.17572 0C9.40533 0 9.62065 0.0886549 9.78214 0.250147L15.4399 5.90735C15.602 6.06948 15.6906 6.28544 15.69 6.51518C15.6906 6.74619 15.602 6.96228 15.4399 7.12415L9.78214 12.7819C9.62065 12.9432 9.40545 13.032 9.17572 13.032C8.94623 13.032 8.73104 12.9431 8.56955 12.7819L8.05599 12.268C7.89437 12.1068 7.80571 11.8915 7.80571 11.6619C7.80571 11.4324 7.89437 11.2284 8.05599 11.0671L11.3937 7.74078H0.870224C0.397356 7.74078 2.86102e-06 7.33322 2.86102e-06 6.86061V6.1339C2.86102e-06 5.66128 0.409091 5.28562 0.881959 5.28562Z" fill="white"/>
</svg>
