<svg width="34" height="34" viewBox="0 0 34 34" fill="none" xmlns="http://www.w3.org/2000/svg">
<path fill-rule="evenodd" clip-rule="evenodd" d="M16.5255 0.250001C12.6058 0.248665 8.81362 1.67773 5.82789 4.28134C2.84217 6.88494 0.857873 10.4931 0.230277 14.4597C-0.39732 18.4264 0.372764 22.4926 2.40265 25.9303C4.43254 29.3679 7.58969 31.9526 11.3088 33.2216C12.1286 33.3785 12.4347 32.8546 12.4347 32.4063C12.4347 32.0029 12.421 30.6722 12.4128 29.2574C7.82193 30.28 6.85456 27.2627 6.85456 27.2627C6.10307 25.3016 5.02093 24.7861 5.02093 24.7861C3.52342 23.7355 5.13297 23.7579 5.13297 23.7579C6.79171 23.8784 7.66343 25.5005 7.66343 25.5005C9.13635 28.0863 11.5247 27.3411 12.4648 26.9013C12.6151 25.8087 13.0413 25.0634 13.5141 24.6404C9.86051 24.2174 5.99377 22.7662 5.99377 16.2833C5.96924 14.5995 6.57903 12.9709 7.69623 11.7364C7.52407 11.3106 6.9584 9.59041 7.85472 7.25391C7.85472 7.25391 9.24019 6.80006 12.3937 8.98808C15.0995 8.22977 17.9542 8.22977 20.6601 8.98808C23.7972 6.81126 25.1936 7.25391 25.1936 7.25391C26.0899 9.58481 25.527 11.305 25.3548 11.7364C26.4689 12.9702 27.0767 14.5966 27.0518 16.2777C27.0518 22.7774 23.1933 24.2062 19.5178 24.6264C20.1081 25.1503 20.6355 26.1813 20.6355 27.7585C20.6355 30.0222 20.6191 31.846 20.6191 32.4007C20.6191 32.8518 20.9142 33.3785 21.7504 33.2132C25.4642 31.9394 28.6151 29.3532 30.64 25.9168C32.6648 22.4804 33.4318 18.4177 32.8036 14.4549C32.1755 10.4921 30.1933 6.88746 27.2112 4.28519C24.2291 1.68292 20.4416 0.252646 16.5255 0.250001Z" fill="#272D2B"/>
<path d="M6.27291 24.5396C6.23735 24.6236 6.10877 24.6488 5.99934 24.5928C5.88992 24.5368 5.81058 24.4219 5.84888 24.3378C5.88718 24.2538 6.01576 24.2286 6.12245 24.2846C6.22914 24.3406 6.31121 24.4555 6.27018 24.5396H6.27291Z" fill="#272D2B"/>
<path d="M6.9425 25.3044C6.86317 25.38 6.70997 25.3436 6.60328 25.2259C6.55341 25.1846 6.52083 25.1254 6.51218 25.0603C6.50354 24.9952 6.51949 24.9292 6.55677 24.8758C6.63884 24.8001 6.78657 24.8365 6.896 24.9542C7.00542 25.0719 7.02457 25.2344 6.9425 25.3044Z" fill="#272D2B"/>
<path d="M7.59286 26.2793C7.49163 26.3521 7.31929 26.2793 7.22354 26.1336C7.12779 25.9879 7.12232 25.803 7.22354 25.7302C7.32476 25.6574 7.49711 25.7302 7.59286 25.8731C7.68861 26.016 7.69408 26.2065 7.59286 26.2793V26.2793Z" fill="#272D2B"/>
<path d="M8.49485 27.2206C8.46157 27.2453 8.42383 27.2629 8.38382 27.2725C8.34382 27.282 8.30236 27.2833 8.26186 27.2763C8.22136 27.2692 8.18264 27.254 8.14796 27.2315C8.11328 27.2089 8.08333 27.1795 8.05987 27.145C7.91488 27.0077 7.87384 26.8144 7.96686 26.7136C8.05987 26.6127 8.24043 26.6379 8.39362 26.778C8.54682 26.9181 8.57965 27.1086 8.4839 27.2094L8.49485 27.2206Z" fill="#272D2B"/>
<path d="M9.71375 27.767C9.67272 27.8986 9.48943 27.9603 9.30066 27.9042C9.1119 27.8482 8.99153 27.6913 9.02709 27.5569C9.06266 27.4224 9.25142 27.3607 9.44018 27.4196C9.62895 27.4784 9.74932 27.6325 9.71375 27.767Z" fill="#272D2B"/>
<path d="M11.0636 27.8678C11.0636 28.0079 10.9104 28.1228 10.7134 28.1256C10.5164 28.1284 10.3578 28.0191 10.355 27.8818C10.3523 27.7446 10.5082 27.6241 10.7079 27.6213C10.9076 27.6185 11.0636 27.7306 11.0636 27.8678V27.8678Z" fill="#272D2B"/>
<path d="M12.3207 27.6493C12.3453 27.7866 12.2085 27.9295 12.0143 27.9631C11.8201 27.9967 11.645 27.9154 11.6204 27.7782C11.5958 27.6409 11.7353 27.498 11.9268 27.4644C12.1183 27.4308 12.2961 27.512 12.3207 27.6493Z" fill="#272D2B"/>
</svg>
