<svg width="228" height="45" viewBox="0 0 228 45" fill="none" xmlns="http://www.w3.org/2000/svg">
<path d="M0.645903 29.055H0.690903L2.1759 21.45L2.6259 21.36C2.6259 23.61 3.3459 26.625 5.7309 29.28C7.8009 30.855 9.0609 31.755 11.5809 31.755C15.1809 31.755 18.2859 28.065 18.2859 24.69C18.2859 19.245 3.9759 16.14 3.9759 10.83C3.9759 5.565 9.6459 1.11 15.6309 0.254999C18.0609 0.344998 21.3009 0.929998 23.3259 2.235L23.1459 8.4H22.6959L20.1309 4.53C18.6009 2.685 16.6209 1.65 14.2359 1.56C10.9059 1.785 7.8459 4.08 7.8459 6.87C7.8459 12.27 22.8309 15.825 22.8309 21.585C22.8309 27.885 16.8459 31.71 9.7809 32.88C6.3159 32.88 1.5459 30.18 0.645903 29.055ZM36.6111 20.55L28.8711 20.775C28.6461 22.08 28.5111 23.385 28.3761 24.6C28.3761 28.155 29.0511 30.045 33.0561 30.045C35.5311 30.045 37.9611 27.03 38.8611 25.95L39.3111 26.4C38.4111 27.48 33.8211 31.8 30.8061 32.835C25.6311 32.79 24.0111 30.405 24.0111 25.185C24.2361 17.31 30.0861 11.1 36.7911 10.56C40.0311 10.92 41.2461 13.215 41.2461 15.825C41.2461 17.355 40.7961 19.065 40.1661 20.505L36.6111 20.55ZM34.3161 11.73C31.2111 11.505 29.7261 15.825 28.9161 20.325L35.8911 20.1C36.6111 18.39 37.0611 16.635 37.0611 15.195C37.0611 13.26 36.2961 11.865 34.3161 11.73ZM62.7498 11.1L59.4648 31.575L62.6148 31.845L62.5698 32.25L55.5498 32.295L55.0998 32.205L57.3498 22.035H57.2598C54.5148 29.55 49.4298 32.61 48.5298 32.88C44.4798 32.565 43.0398 30.405 43.0398 27.57C43.0398 25.68 43.9848 21 45.6498 11.82H45.6048L42.7248 11.325V11.1H49.7448C49.7448 12.945 47.4048 22.575 47.4048 25.95C47.4948 27.795 48.4848 29.595 50.3748 29.595C51.1398 29.595 54.1548 28.83 56.8548 21.9L58.6548 11.1H62.7498ZM81.679 31.53L84.559 32.025V32.25H77.539C79.699 18.615 79.924 17.58 79.879 16.68C79.789 14.835 78.799 13.845 76.909 13.845C76.144 13.845 73.264 14.34 70.564 21.315L68.314 32.25H64.219L67.954 11.91L65.839 11.37L65.884 11.1L71.869 11.055L72.319 11.145L70.069 21.135H70.159C72.904 13.62 77.854 10.83 78.754 10.56C82.804 10.875 84.244 12.225 84.244 15.96C84.244 17.85 83.299 22.35 81.634 31.53H81.679ZM106.812 10.425L109.062 11.1C108.837 11.685 108.387 12.675 107.892 12.99C107.397 13.26 106.272 12.495 105.147 12.495C104.607 12.405 104.022 12.36 103.617 12.54C104.562 13.53 105.012 14.88 105.012 16.5C105.012 21.585 99.7922 25.77 94.8422 26.76C93.3122 26.76 92.1422 26.58 91.1522 26.22C90.2522 26.985 89.2172 27.975 88.9022 28.83C88.8572 29.46 89.3522 29.64 89.8472 29.685C90.2522 29.685 95.2022 30.045 95.4272 30.045C99.6122 30.45 102.537 33.15 102.222 36.795C101.682 43.05 94.0772 43.725 92.5022 44.13C91.8722 44.13 91.2872 44.13 90.7022 44.04C84.5372 43.5 83.0972 40.575 83.0972 37.83C84.4922 36.075 86.0672 34.815 90.4772 31.98C90.0272 31.89 89.5322 31.845 88.9922 31.8C87.9572 31.71 86.5172 30.225 86.9222 28.83C88.0022 27.75 89.4422 26.985 90.6572 25.995C88.9472 25.14 88.2722 23.52 88.2722 21.18C88.2722 15.78 93.1322 11.82 98.1272 10.56C99.6122 10.56 100.827 10.785 101.817 11.235C103.122 11.595 103.797 11.91 104.877 11.865C105.957 11.82 106.812 11.145 106.812 10.425ZM95.0672 25.995C99.0722 25.995 100.917 20.505 100.917 15.96C100.917 12.675 100.017 11.325 97.6772 11.325C93.5822 11.325 92.3672 17.22 92.3672 21.765C92.3672 24.825 93.1772 25.995 95.0672 25.995ZM98.5772 38.325C98.8022 35.76 96.1472 33.105 91.1072 32.115C88.9022 33.555 87.5522 35.22 87.3272 37.605C87.0572 41.025 88.8572 42.825 91.3772 43.05C95.7422 43.455 98.1722 42.915 98.5772 38.325ZM137.542 0.749998L137.497 1.02L134.437 1.47L134.392 1.425L129.127 31.53L132.007 31.98L131.962 32.25H121.522L121.567 31.98L124.627 31.53L127.462 16.455H116.347L113.692 31.53L116.617 31.98L116.572 32.25H106.042L106.087 31.98L109.192 31.53L114.457 1.47L111.532 1.02L111.577 0.749998H121.747L121.702 1.02L119.002 1.47H118.957L116.482 15.6H127.597L130.252 1.47L127.417 1.02L127.462 0.749998H137.542ZM147.146 11.055L153.446 11.1L138.911 39.135C137.696 41.925 133.691 43.68 132.296 44.04C131.621 43.905 130.181 43.23 129.146 42.645L131.846 39.315C133.061 40.35 134.456 41.07 135.131 41.07C136.031 41.07 137.021 40.89 138.056 39.09L142.691 30.945L139.676 31.44L136.841 11.775L134.546 11.37L134.591 11.1H141.071L143.411 28.92L143.276 29.685L143.321 29.55L150.296 15.645C151.061 13.935 149.216 11.325 147.146 11.325V11.055ZM173.316 11.1L170.031 31.575L173.181 31.845L173.136 32.25L166.116 32.295L165.666 32.205L167.916 22.035H167.826C165.081 29.55 159.996 32.61 159.096 32.88C155.046 32.565 153.606 30.405 153.606 27.57C153.606 25.68 154.551 21 156.216 11.82H156.171L153.291 11.325V11.1H160.311C160.311 12.945 157.971 22.575 157.971 25.95C158.061 27.795 159.051 29.595 160.941 29.595C161.706 29.595 164.721 28.83 167.421 21.9L169.221 11.1H173.316ZM192.245 31.53L195.125 32.025V32.25H188.105C190.265 18.615 190.49 17.58 190.445 16.68C190.355 14.835 189.365 13.845 187.475 13.845C186.71 13.845 183.83 14.34 181.13 21.315L178.88 32.25H174.785L178.52 11.91L176.405 11.37L176.45 11.1L182.435 11.055L182.885 11.145L180.635 21.135H180.725C183.47 13.62 188.42 10.83 189.32 10.56C193.37 10.875 194.81 12.225 194.81 15.96C194.81 17.85 193.865 22.35 192.2 31.53H192.245ZM227.279 0.749998L227.234 1.02L224.174 1.47L224.129 1.425L218.864 31.53L221.744 31.98L221.699 32.25H211.259L211.304 31.98L214.364 31.53L217.199 16.455H206.084L203.429 31.53L206.354 31.98L206.309 32.25H195.779L195.824 31.98L198.929 31.53L204.194 1.47L201.269 1.02L201.314 0.749998H211.484L211.439 1.02L208.739 1.47H208.694L206.219 15.6H217.334L219.989 1.47L217.154 1.02L217.199 0.749998H227.279Z" fill="white"/>
</svg>
