<svg width="233" height="46" viewBox="0 0 233 46" fill="none" xmlns="http://www.w3.org/2000/svg">
<path d="M20.7979 12.85C20.1679 12.535 16.6579 12.13 15.8479 12.13C9.1879 13.39 0.9979 21.49 0.9979 28.465C0.9979 31.66 2.5729 34.18 5.0029 34.405C8.4229 31.705 13.3729 27.34 14.8579 24.73H15.0379L13.5529 34H20.4379L20.4829 33.775L17.5579 33.28L20.7979 12.85ZM14.0479 24.595C12.7879 26.98 8.0179 31.255 7.4779 31.255C6.0829 31.12 5.4979 29.905 5.4979 28.375C5.4979 22.12 9.4129 13.84 14.6329 13.84C15.6679 13.84 16.6129 14.155 17.4679 14.83L14.0479 24.595ZM52.2919 33.28H52.2019C53.8669 24.1 54.8119 19.6 54.8119 17.71C54.8119 13.975 53.3719 12.535 49.3219 12.22C48.5119 12.445 44.5069 14.83 41.7169 20.815C41.9419 19.375 42.0769 18.385 42.0769 17.71C42.0769 13.975 40.6369 12.535 36.5869 12.22C35.6869 12.49 30.8719 15.37 28.1269 22.885H28.0369L30.2869 12.895L29.8369 12.805L23.8069 12.85L23.7619 13.12L25.9219 13.615L22.6369 34H26.7319L28.5319 23.02C31.2319 16.09 33.9769 15.505 34.7419 15.505C36.6319 15.505 37.6219 16.585 37.7119 18.43C37.7569 19.33 37.5319 20.365 35.3719 34H39.3319L39.4669 33.325L39.6019 33.28H39.4669L41.4019 22.75C44.0569 16.045 46.7119 15.505 47.4769 15.505C49.3669 15.505 50.3569 16.585 50.4469 18.43C50.4919 19.33 50.2669 20.365 48.1069 34H55.1719V33.775L52.2919 33.28ZM75.9053 12.85C75.2753 12.535 71.7653 12.13 70.9553 12.13C64.2953 13.39 56.1053 21.49 56.1053 28.465C56.1053 31.66 57.6803 34.18 60.1103 34.405C63.5303 31.705 68.4803 27.34 69.9653 24.73H70.1453L68.6603 34H75.5453L75.5903 33.775L72.6653 33.28L75.9053 12.85ZM69.1553 24.595C67.8953 26.98 63.1253 31.255 62.5853 31.255C61.1903 31.12 60.6053 29.905 60.6053 28.375C60.6053 22.12 64.5203 13.84 69.7403 13.84C70.7753 13.84 71.7203 14.155 72.5753 14.83L69.1553 24.595ZM94.7093 33.28H94.6643C96.3293 24.1 97.2743 19.6 97.2743 17.71C97.2743 13.975 95.8343 12.625 91.7843 12.31C90.8843 12.58 85.9343 15.37 83.1893 22.885H83.0993L85.3493 12.895L84.8993 12.805L78.9143 12.85L78.8693 13.12L80.9843 13.66L77.2493 34H81.3443L83.5943 23.065C86.2943 16.09 89.1743 15.595 89.9393 15.595C91.8293 15.595 92.8193 16.585 92.9093 18.43C92.9543 19.33 92.7293 20.365 90.5693 34H97.5893V33.775L94.7093 33.28ZM121.733 0.249997H114.758L114.713 0.519999L117.773 1.105L115.298 12.355C114.353 12.22 113.408 12.13 113.003 12.13C106.388 13.21 98.8275 20.545 98.8275 26.575C98.8275 30.76 100.313 34.315 103.283 34.315C106.703 31.615 110.483 27.34 111.968 24.73H112.148L110.573 34H117.143L117.188 33.775L114.263 33.28L121.733 0.249997ZM111.158 24.595C109.898 26.98 106.568 31.39 105.488 31.39C103.553 31.39 103.328 28.42 103.328 26.485C103.328 20.32 105.578 13.795 110.888 13.795C112.013 13.795 113.318 14.155 114.398 14.965L111.158 24.595ZM138.835 12.85C138.205 12.535 134.695 12.13 133.885 12.13C127.225 13.39 119.035 21.49 119.035 28.465C119.035 31.66 120.61 34.18 123.04 34.405C126.46 31.705 131.41 27.34 132.895 24.73H133.075L131.59 34H138.475L138.52 33.775L135.595 33.28L138.835 12.85ZM132.085 24.595C130.825 26.98 126.055 31.255 125.515 31.255C124.12 31.12 123.535 29.905 123.535 28.375C123.535 22.12 127.45 13.84 132.67 13.84C133.705 13.84 134.65 14.155 135.505 14.83L132.085 24.595ZM162.418 12.805V13.075C164.488 13.075 166.333 15.685 165.568 17.395L158.593 31.3L158.548 31.435L158.683 30.67L156.343 12.85H149.863L149.818 13.12L152.113 13.525L154.948 33.19L157.963 32.695L153.328 40.84C152.293 42.64 151.303 42.82 150.403 42.82C149.728 42.82 148.333 42.1 147.118 41.065L144.418 44.395C145.453 44.98 146.893 45.655 147.568 45.79C148.963 45.43 152.968 43.675 154.183 40.885L168.718 12.85L162.418 12.805ZM186.428 12.85C185.798 12.535 182.288 12.13 181.478 12.13C174.818 13.39 166.628 21.49 166.628 28.465C166.628 31.66 168.203 34.18 170.633 34.405C174.053 31.705 179.003 27.34 180.488 24.73H180.668L179.183 34H186.068L186.113 33.775L183.188 33.28L186.428 12.85ZM179.678 24.595C178.418 26.98 173.648 31.255 173.108 31.255C171.713 31.12 171.128 29.905 171.128 28.375C171.128 22.12 175.043 13.84 180.263 13.84C181.298 13.84 182.243 14.155 183.098 14.83L179.678 24.595ZM205.232 33.28H205.187C206.852 24.1 207.797 19.6 207.797 17.71C207.797 13.975 206.357 12.625 202.307 12.31C201.407 12.58 196.457 15.37 193.712 22.885H193.622L195.872 12.895L195.422 12.805L189.437 12.85L189.392 13.12L191.507 13.66L187.772 34H191.867L194.117 23.065C196.817 16.09 199.697 15.595 200.462 15.595C202.352 15.595 203.342 16.585 203.432 18.43C203.477 19.33 203.252 20.365 201.092 34H208.112V33.775L205.232 33.28ZM230.365 12.175C230.365 12.895 229.51 13.57 228.43 13.615C227.35 13.66 226.675 13.345 225.37 12.985C224.38 12.535 223.165 12.31 221.68 12.31C216.685 13.57 211.825 17.53 211.825 22.93C211.825 25.27 212.5 26.89 214.21 27.745C212.995 28.735 211.555 29.5 210.475 30.58C210.07 31.975 211.51 33.46 212.545 33.55C213.085 33.595 213.58 33.64 214.03 33.73C209.62 36.565 208.045 37.825 206.65 39.58C206.65 42.325 208.09 45.25 214.255 45.79C214.84 45.88 215.425 45.88 216.055 45.88C217.63 45.475 225.235 44.8 225.775 38.545C226.09 34.9 223.165 32.2 218.98 31.795C218.755 31.795 213.805 31.435 213.4 31.435C212.905 31.39 212.41 31.21 212.455 30.58C212.77 29.725 213.805 28.735 214.705 27.97C215.695 28.33 216.865 28.51 218.395 28.51C223.345 27.52 228.565 23.335 228.565 18.25C228.565 16.63 228.115 15.28 227.17 14.29C227.575 14.11 228.16 14.155 228.7 14.245C229.825 14.245 230.95 15.01 231.445 14.74C231.94 14.425 232.39 13.435 232.615 12.85L230.365 12.175ZM218.62 27.745C216.73 27.745 215.92 26.575 215.92 23.515C215.92 18.97 217.135 13.075 221.23 13.075C223.57 13.075 224.47 14.425 224.47 17.71C224.47 22.255 222.625 27.745 218.62 27.745ZM222.13 40.075C221.725 44.665 219.295 45.205 214.93 44.8C212.41 44.575 210.61 42.775 210.88 39.355C211.105 36.97 212.455 35.305 214.66 33.865C219.7 34.855 222.355 37.51 222.13 40.075Z" fill="white"/>
</svg>
