<svg width="24" height="24" viewBox="0 0 24 24" fill="none" xmlns="http://www.w3.org/2000/svg">
<circle cx="12" cy="12" r="12" fill="black"/>
<path d="M4.8 18C4.305 18 3.88125 17.8409 3.52875 17.5227C3.17625 17.2044 3 16.8219 3 16.375V6.625C3 6.17812 3.17625 5.79557 3.52875 5.47734C3.88125 5.15911 4.305 5 4.8 5H19.2C19.695 5 20.1188 5.15911 20.4713 5.47734C20.8238 5.79557 21 6.17812 21 6.625V16.375C21 16.8219 20.8238 17.2044 20.4713 17.5227C20.1188 17.8409 19.695 18 19.2 18H4.8ZM12 12.3125L4.8 8.25V16.375H19.2V8.25L12 12.3125ZM12 10.6875L19.2 6.625H4.8L12 10.6875ZM4.8 8.25V6.625V16.375V8.25Z" fill="white"/>
</svg>
