<svg width="24" height="24" viewBox="0 0 24 24" fill="none" xmlns="http://www.w3.org/2000/svg">
<circle cx="12" cy="12" r="12" fill="black"/>
<path d="M19.0667 20C17.2148 20 15.3852 19.5963 13.5778 18.7889C11.7704 17.9815 10.1259 16.837 8.64444 15.3556C7.16296 13.8741 6.01852 12.2296 5.21111 10.4222C4.4037 8.61481 4 6.78519 4 4.93333C4 4.66667 4.08889 4.44444 4.26667 4.26667C4.44444 4.08889 4.66667 4 4.93333 4H8.53333C8.74074 4 8.92593 4.07037 9.08889 4.21111C9.25185 4.35185 9.34815 4.51852 9.37778 4.71111L9.95556 7.82222C9.98519 8.05926 9.97778 8.25926 9.93333 8.42222C9.88889 8.58519 9.80741 8.72593 9.68889 8.84444L7.53333 11.0222C7.82963 11.5704 8.18148 12.1 8.58889 12.6111C8.9963 13.1222 9.44444 13.6148 9.93333 14.0889C10.3926 14.5481 10.8741 14.9741 11.3778 15.3667C11.8815 15.7593 12.4148 16.1185 12.9778 16.4444L15.0667 14.3556C15.2 14.2222 15.3741 14.1222 15.5889 14.0556C15.8037 13.9889 16.0148 13.9704 16.2222 14L19.2889 14.6222C19.4963 14.6815 19.6667 14.7889 19.8 14.9444C19.9333 15.1 20 15.2741 20 15.4667V19.0667C20 19.3333 19.9111 19.5556 19.7333 19.7333C19.5556 19.9111 19.3333 20 19.0667 20ZM6.68889 9.33333L8.15556 7.86667L7.77778 5.77778H5.8C5.87407 6.38519 5.97778 6.98519 6.11111 7.57778C6.24444 8.17037 6.43704 8.75556 6.68889 9.33333ZM14.6444 17.2889C15.2222 17.5407 15.8111 17.7407 16.4111 17.8889C17.0111 18.037 17.6148 18.1333 18.2222 18.1778V16.2222L16.1333 15.8L14.6444 17.2889Z" fill="white"/>
</svg>
